# xmcd
#
# Track frame offsets:
#	150
#	20328
#	42695
#	72530
#	87118
#	125485
#	140125
#	162320
#	189303
#	216460
#	233083
#	255438
# Disc length: 3700 seconds
# Revision: 1
# Processed by: cddbd v1.5PL3 Copyright (c) Steve Scherf et al.
#
# Submitted via: libkcddb 0.10
#
DISCID=b00e720c
DTITLE=Sounds of Nature - Peace and Tranquillity vol3
DYEAR=1995
DGENRE=Sounds of Nature
TTITLE0=Early morning in the forest
TTITLE1=Sunrise
TTITLE2=A small forest stream in may
TTITLE3=A break
TTITLE4=Rain in the forest
TTITLE5=Blackbird in Provence
TTITLE6=The brook in the forest
TTITLE7=Thrushes of dusk
TTITLE8=Nightinggales
TTITLE9=A coastoal estuary
TTITLE10=The music of the sea
TTITLE11=The magic songs of whales
EXTD=Reader?s Digest
EXTT0=
EXTT1=
EXTT2=
EXTT3=
EXTT4=
EXTT5=
EXTT6=
EXTT7=
EXTT8=
EXTT9=
EXTT10=
EXTT11=
PLAYORDER=
